<?xml version="1.0" encoding="utf-8"?>
<!-- Generator: Adobe Illustrator 15.1.0, SVG Export Plug-In . SVG Version: 6.00 Build 0)  -->
<!DOCTYPE svg PUBLIC "-//W3C//DTD SVG 1.1//EN" "http://www.w3.org/Graphics/SVG/1.1/DTD/svg11.dtd">
<svg version="1.1"
	 id="svg2" xmlns:dc="http://purl.org/dc/elements/1.1/" xmlns:svg="http://www.w3.org/2000/svg" xmlns:rdf="http://www.w3.org/1999/02/22-rdf-syntax-ns#" xmlns:cc="http://creativecommons.org/ns#"
	 xmlns="http://www.w3.org/2000/svg" xmlns:xlink="http://www.w3.org/1999/xlink" x="0px" y="0px" width="60px" height="34px"
	 viewBox="0 0 60 34" enable-background="new 0 0 60 34" xml:space="preserve">
<path id="path47" fill="#A37E2C" d="M37.3,4.45c0.267,0,0.517,0.1,0.75,0.3l0.3,0.75l-0.3,0.75L37.3,6.6l-0.25-0.05l-3,10.25
	c-0.2,0.6-0.667,1.083-1.399,1.45c-0.768,0.4-1.647,0.6-2.647,0.6s-1.867-0.199-2.6-0.6c-0.767-0.367-1.233-0.85-1.4-1.45L23,6.55
	L22.7,6.6c-0.267,0-0.517-0.117-0.75-0.35c-0.2-0.2-0.3-0.45-0.3-0.75c0-0.267,0.1-0.517,0.3-0.75c0.233-0.2,0.483-0.3,0.75-0.3
	c0.3,0,0.566,0.1,0.8,0.3l0.3,0.75l-0.15,0.6L23.2,6.45l3.5,7.5l-0.55-10.1l-0.75-0.3c-0.233-0.2-0.35-0.45-0.35-0.75
	c0-0.3,0.117-0.55,0.35-0.75c0.2-0.2,0.45-0.3,0.75-0.3c0.267,0,0.517,0.1,0.75,0.3l0.3,0.75L27,3.45L26.4,3.8l2.35,9.9l1.1-10.9
	L29.2,2.45l-0.25-0.7c0-0.267,0.1-0.517,0.3-0.75c0.2-0.2,0.45-0.3,0.75-0.3s0.55,0.1,0.75,0.3l0.3,0.75l-0.25,0.7L30.15,2.8
	l1.15,10.9l2.3-9.9l-0.55-0.35l-0.2-0.65c0-0.3,0.104-0.55,0.301-0.75c0.199-0.2,0.449-0.3,0.75-0.3c0.303,0,0.553,0.1,0.75,0.3
	l0.303,0.75L34.65,3.55l-0.75,0.3L33.3,13.95l3.5-7.5L36.4,6.1l-0.2-0.6c0-0.267,0.1-0.517,0.3-0.75C36.732,4.55,37,4.45,37.3,4.45z
	 M30,18.05l2.35-0.3c0.668-0.2,1-0.45,1-0.75s-0.332-0.55-1-0.75L30,15.95l-2.35,0.3c-0.667,0.2-1,0.45-1,0.75s0.333,0.55,1,0.75
	L30,18.05z"/>
<path id="path49" fill="#006039" d="M17.2,24.45h-0.05c-0.566,0.233-1,0.616-1.3,1.149c-0.533,0.834-0.8,1.834-0.8,3l0.25,1.697
	l0.7,1.4l0.6,0.646c0.433,0.367,0.9,0.551,1.4,0.551l0.25,0.053l0.3-0.053c0.5,0,0.967-0.184,1.4-0.551l0.6-0.646l0.7-1.4L21.5,28.6
	c0-1.166-0.283-2.166-0.85-3c-0.3-0.533-0.717-0.916-1.25-1.147l-0.35-0.103l-0.8-0.147L17.5,24.35L17.2,24.45z M19.4,24.45h-0.05
	H19.4z M14.35,32.4c-1.067-1.066-1.6-2.354-1.6-3.854c0-1.466,0.533-2.73,1.6-3.8c1.1-1.063,2.4-1.603,3.9-1.603
	c1.533,0,2.833,0.533,3.9,1.603c1.1,1.063,1.65,2.334,1.65,3.8c0,1.5-0.55,2.784-1.65,3.854c-1.066,1.063-2.367,1.6-3.9,1.6
	C16.75,34,15.45,33.467,14.35,32.4z"/>
<path id="path51" fill="#006039" d="M33.95,31.25V29.7h0.75v1.45v2.5h-9.55V32.9h1.5V24.3h-1.5v-0.8h5.35v0.8H29V32.9h3.25
	c0.467,0,0.867-0.168,1.2-0.5C33.783,32.066,33.95,31.684,33.95,31.25z"/>
<path id="path53" fill="#006039" d="M42.25,27.6c0.232-0.229,0.35-0.516,0.35-0.85V26.2h0.7v4.25h-0.7V29.85
	c0-0.332-0.115-0.615-0.35-0.85c-0.268-0.232-0.566-0.35-0.9-0.35H40.15v4.25h3.8c0.466,0,0.866-0.168,1.2-0.5
	c0.332-0.334,0.5-0.734,0.5-1.2V30h0.75v3.65H36.3V32.9h1.45V24.3H36.3v-0.8H46.4V27h-0.75v-1.05c0-0.468-0.168-0.851-0.5-1.15
	c-0.334-0.333-0.734-0.5-1.2-0.5h-3.8v3.65h1.199L42.25,27.6z"/>
<path id="path55" fill="#006039" d="M48.5,24.25h-0.2v-0.7H53.4v0.7h-0.9l-0.2,0.1l-0.1,0.25l0.05,0.25l1.9,2.301L56.1,24.8
	l0.051-0.2l-0.101-0.25l-0.25-0.1H54.9v-0.7H59v0.7h-0.6c-0.334,0.033-0.604,0.117-0.801,0.25L56.9,25.2l-2.25,2.649L58.05,32
	l0.65,0.7l0.8,0.25H60v0.7h-5.5v-0.7h0.95l0.25-0.101l0.1-0.303l-0.1-0.197l-2.25-2.853l-2.4,2.853l-0.1,0.25l0.1,0.25l0.25,0.101
	H52.4v0.7H48v-0.7h0.65l0.8-0.25L50.2,32l2.649-3.2L49.9,25.1l-0.65-0.6C49.084,24.367,48.834,24.283,48.5,24.25z"/>
<path id="path57" fill="#006039" d="M7.8,23.5c0.733,0,1.35,0.25,1.85,0.75c0.5,0.533,0.75,1.15,0.75,1.85
	c0,0.668-0.2,1.25-0.6,1.75C9.367,28.316,8.833,28.6,8.2,28.7l1.1,0.5l0.6,0.7l0.45,1.05L11,32.9h1.2v0.75H8.85L8.4,31.7l-0.5-1.45
	l-0.2-0.3l-0.75-0.8l-0.7-0.25L5.3,28.75H3.8v4.15h1.5v0.75H0V32.9h1.45v-8.65H0V23.5H7.8z M8.2,26.1c0-0.5-0.184-0.934-0.55-1.3
	c-0.367-0.333-0.816-0.517-1.35-0.55H3.85v3.7H6.3c0.534,0,0.983-0.167,1.35-0.5C8.017,27.084,8.2,26.633,8.2,26.1z"/>
</svg>
